<svg version="1.1" id="Layer_1" xmlns="http://www.w3.org/2000/svg" xmlns:xlink="http://www.w3.org/1999/xlink" 
	  width="100%" viewBox="0 0 500 500">
<path fill="#6F1DCC" opacity="1.000000" stroke="none" 
	d="
M293.448792,334.743683 
	C303.245270,337.768982 312.681641,340.443512 322.713287,338.182831 
	C330.928009,336.331604 335.745667,331.351318 337.071442,322.966034 
	C339.054535,310.423431 335.179932,298.929016 330.598389,287.578522 
	C329.851013,285.726959 328.303467,283.891327 328.375153,282.098328 
	C328.454590,280.110779 329.514771,277.172974 330.985535,276.511505 
	C332.428619,275.862488 336.124878,276.970673 336.773438,278.306915 
	C343.889771,292.968964 349.671021,308.135651 346.679779,324.857666 
	C343.585846,342.153900 328.337036,351.343048 308.698853,348.544495 
	C291.181427,346.048187 275.443420,338.818085 260.772766,329.534943 
	C218.805756,302.979431 185.184387,268.445953 163.645844,223.297165 
	C159.008987,213.577469 156.195724,202.557037 154.746002,191.837738 
	C151.766815,169.809616 166.917099,154.715576 188.937958,156.260406 
	C201.249420,157.124100 212.715271,160.970932 223.826218,166.072327 
	C226.505783,167.302628 228.353531,169.235825 227.081177,172.376587 
	C225.761261,175.634705 223.026627,176.084106 220.019791,174.950989 
	C214.889282,173.017563 209.926468,170.534134 204.675430,169.054764 
	C199.278946,167.534424 193.652695,166.339981 188.072830,166.051849 
	C171.169220,165.178925 161.671112,175.131989 164.502777,191.879868 
	C166.227753,202.082275 169.155670,212.429733 173.547699,221.769440 
	C188.568909,253.712112 211.719788,279.325958 238.604996,301.761963 
	C255.072311,315.504150 272.828888,327.126068 293.448792,334.743683 
z"/>
<path fill="#F9F9F9" opacity="1.000000" stroke="none" 
	d="
M285.339844,191.714081 
	C331.914856,220.478760 334.063995,283.284637 289.812927,314.943268 
	C286.992523,316.961090 283.827820,318.508240 280.777039,320.190491 
	C277.906006,321.773621 275.188477,321.641968 273.522339,318.525024 
	C271.919098,315.525726 273.771576,313.689941 276.134369,311.953949 
	C282.528564,307.256134 289.551910,303.114197 294.984680,297.462677 
	C313.972229,277.710724 317.351105,248.399643 304.144928,224.512756 
	C290.734680,200.256714 264.274475,187.615967 237.203186,192.759155 
	C217.033737,196.591080 202.024521,207.677155 192.132111,225.674118 
	C191.812744,226.255112 191.520874,226.851837 191.232071,227.448883 
	C189.782516,230.445602 187.184677,231.049026 184.529358,229.849487 
	C181.559769,228.507935 181.462051,225.915619 182.751373,223.085236 
	C187.768646,212.071167 195.228500,202.982132 205.111725,196.143631 
	C230.736237,178.413254 257.466858,177.082520 285.339844,191.714081 
z"/>
<path fill="#F8F8F8" opacity="1.000000" stroke="none" 
	d="
M232.896271,322.165100 
	C230.589661,323.142639 228.057175,324.827118 226.255798,324.245850 
	C201.681992,316.316010 186.101318,299.406128 178.242004,275.080536 
	C177.250351,272.011230 178.022247,269.256897 181.367126,268.268494 
	C184.776520,267.261047 186.679703,269.372864 187.627625,272.389771 
	C194.260681,293.500458 208.165421,307.561310 228.880768,315.035614 
	C232.102203,316.197906 233.930405,318.159149 232.896271,322.165100 
z"/>
</svg>