<?xml version="1.0" encoding="UTF-8" standalone="no"?><svg xmlns="http://www.w3.org/2000/svg" xmlns:xlink="http://www.w3.org/1999/xlink" fill="#000000" height="81.8" preserveAspectRatio="xMidYMid meet" version="1" viewBox="8.4 8.4 83.2 81.8" width="83.2" zoomAndPan="magnify"><g><g id="change1_1"><path d="M41.264,76.277c-8.591-2.62-15.394-9.626-17.754-18.284c-0.291-1.065-1.391-1.696-2.456-1.403 c-1.066,0.291-1.694,1.39-1.404,2.456c2.719,9.972,10.553,18.041,20.446,21.058c0.194,0.06,0.391,0.088,0.584,0.088 c0.857,0,1.649-0.556,1.913-1.418C42.916,77.718,42.32,76.6,41.264,76.277z" fill="#ffffff"/></g><g id="change1_2"><path d="M21.472,38.004c-0.473,0.999-0.046,2.191,0.952,2.664c1,0.473,2.191,0.046,2.664-0.952 C29.444,30.515,38.831,24.57,49,24.57c14.573,0,26.43,11.856,26.43,26.43c0,10.17-5.945,19.556-15.146,23.912 c-0.999,0.473-1.425,1.665-0.952,2.663c0.342,0.723,1.06,1.146,1.809,1.145c0.287,0,0.578-0.062,0.854-0.192 C72.586,73.513,79.43,62.708,79.43,51c0-16.779-13.65-30.43-30.43-30.43C37.292,20.57,26.487,27.413,21.472,38.004z" fill="#ffffff"/></g><g id="change2_1"><path d="M85.844,60.901c-0.473-0.998-1.661-1.423-2.664-0.951c-0.998,0.473-1.424,1.665-0.951,2.664 c4.568,9.646,5.146,17.556,1.543,21.157c-3.605,3.604-11.514,3.025-21.161-1.545c-8.429-3.971-17.618-10.706-25.874-18.963 c-8.259-8.26-14.994-17.449-18.965-25.877c-4.568-9.646-5.145-17.556-1.543-21.158c3.602-3.603,11.512-3.026,21.158,1.543 c0.999,0.474,2.191,0.046,2.664-0.952s0.047-2.19-0.952-2.664C27.521,8.673,18.394,8.404,13.4,13.4 c-4.995,4.994-4.726,14.121,0.755,25.695c4.161,8.832,11.176,18.419,19.753,26.997c8.574,8.575,18.162,15.591,26.994,19.752 c6.072,2.876,11.469,4.317,15.95,4.317c4.063-0.001,7.373-1.186,9.748-3.562C91.595,81.605,91.326,72.479,85.844,60.901z" fill="#721ed1"/></g></g></svg>